<mxfile host="app.diagrams.net" modified="2023-12-02T14:44:07.033Z" agent="Mozilla/5.0 (Windows NT 10.0; Win64; x64) AppleWebKit/537.36 (KHTML, like Gecko) Chrome/119.0.0.0 Safari/537.36 Edg/119.0.0.0" etag="0YEwlgmfoTZk273aZD8U" version="22.1.5" type="github">
  <diagram name="第 1 页" id="FRvKm5lwS4Rhhj2kBkGg">
    <mxGraphModel dx="1026" dy="471" grid="1" gridSize="10" guides="1" tooltips="1" connect="1" arrows="1" fold="1" page="1" pageScale="1" pageWidth="827" pageHeight="1169" math="0" shadow="0">
      <root>
        <mxCell id="0" />
        <mxCell id="1" parent="0" />
        <mxCell id="xQd1zLAD4g_vqcQ5N1h_-2" value="" style="rounded=0;whiteSpace=wrap;html=1;" parent="1" vertex="1">
          <mxGeometry x="140" y="100" width="380" height="370" as="geometry" />
        </mxCell>
        <mxCell id="qpZsGNjPDPIV_CRu0O-Y-4" style="edgeStyle=none;rounded=0;orthogonalLoop=1;jettySize=auto;html=1;exitX=1;exitY=0.3333333333333333;exitDx=0;exitDy=0;exitPerimeter=0;" parent="1" source="xQd1zLAD4g_vqcQ5N1h_-1" target="xQd1zLAD4g_vqcQ5N1h_-27" edge="1">
          <mxGeometry relative="1" as="geometry" />
        </mxCell>
        <mxCell id="qpZsGNjPDPIV_CRu0O-Y-6" style="edgeStyle=none;rounded=0;orthogonalLoop=1;jettySize=auto;html=1;exitX=1;exitY=0.3333333333333333;exitDx=0;exitDy=0;exitPerimeter=0;entryX=0;entryY=0.5;entryDx=0;entryDy=0;" parent="1" source="xQd1zLAD4g_vqcQ5N1h_-1" target="qpZsGNjPDPIV_CRu0O-Y-5" edge="1">
          <mxGeometry relative="1" as="geometry" />
        </mxCell>
        <mxCell id="mdlVS8bJ89gBcZG47861-3" style="rounded=0;orthogonalLoop=1;jettySize=auto;html=1;entryX=0;entryY=0.5;entryDx=0;entryDy=0;exitX=1;exitY=0.3333333333333333;exitDx=0;exitDy=0;exitPerimeter=0;" edge="1" parent="1" source="xQd1zLAD4g_vqcQ5N1h_-1" target="mdlVS8bJ89gBcZG47861-1">
          <mxGeometry relative="1" as="geometry" />
        </mxCell>
        <mxCell id="xQd1zLAD4g_vqcQ5N1h_-1" value="系统管理员" style="shape=umlActor;verticalLabelPosition=bottom;verticalAlign=top;html=1;" parent="1" vertex="1">
          <mxGeometry x="50" y="270" width="30" height="60" as="geometry" />
        </mxCell>
        <mxCell id="xQd1zLAD4g_vqcQ5N1h_-26" value="GARP上层应用报文的解码/编码" style="ellipse;whiteSpace=wrap;html=1;" parent="1" vertex="1">
          <mxGeometry x="324" y="140" width="186" height="40" as="geometry" />
        </mxCell>
        <mxCell id="qpZsGNjPDPIV_CRu0O-Y-10" style="edgeStyle=none;rounded=0;orthogonalLoop=1;jettySize=auto;html=1;exitX=1;exitY=0.5;exitDx=0;exitDy=0;entryX=0;entryY=0.5;entryDx=0;entryDy=0;" parent="1" source="xQd1zLAD4g_vqcQ5N1h_-27" target="qpZsGNjPDPIV_CRu0O-Y-7" edge="1">
          <mxGeometry relative="1" as="geometry" />
        </mxCell>
        <mxCell id="qpZsGNjPDPIV_CRu0O-Y-11" style="edgeStyle=none;rounded=0;orthogonalLoop=1;jettySize=auto;html=1;entryX=0;entryY=0.5;entryDx=0;entryDy=0;" parent="1" source="xQd1zLAD4g_vqcQ5N1h_-27" target="qpZsGNjPDPIV_CRu0O-Y-8" edge="1">
          <mxGeometry relative="1" as="geometry">
            <mxPoint x="350" y="249" as="targetPoint" />
          </mxGeometry>
        </mxCell>
        <mxCell id="mdlVS8bJ89gBcZG47861-5" style="rounded=0;orthogonalLoop=1;jettySize=auto;html=1;entryX=0;entryY=0.5;entryDx=0;entryDy=0;" edge="1" parent="1" source="xQd1zLAD4g_vqcQ5N1h_-27" target="mdlVS8bJ89gBcZG47861-4">
          <mxGeometry relative="1" as="geometry" />
        </mxCell>
        <mxCell id="xQd1zLAD4g_vqcQ5N1h_-27" value="注册解析" style="ellipse;whiteSpace=wrap;html=1;" parent="1" vertex="1">
          <mxGeometry x="190" y="210" width="90" height="40" as="geometry" />
        </mxCell>
        <mxCell id="xQd1zLAD4g_vqcQ5N1h_-28" value="申请者状态机" style="ellipse;whiteSpace=wrap;html=1;" parent="1" vertex="1">
          <mxGeometry x="364.5" y="340" width="100" height="40" as="geometry" />
        </mxCell>
        <mxCell id="xQd1zLAD4g_vqcQ5N1h_-29" value="注册者状态机" style="ellipse;whiteSpace=wrap;html=1;" parent="1" vertex="1">
          <mxGeometry x="349.5" y="390" width="130" height="40" as="geometry" />
        </mxCell>
        <mxCell id="xQd1zLAD4g_vqcQ5N1h_-43" value="&lt;font style=&quot;font-size: 14px;&quot;&gt;&lt;b style=&quot;&quot;&gt;状态机系统&lt;/b&gt;&lt;/font&gt;" style="text;html=1;strokeColor=none;fillColor=none;align=center;verticalAlign=middle;whiteSpace=wrap;rounded=0;" parent="1" vertex="1">
          <mxGeometry x="260" y="110" width="140" height="20" as="geometry" />
        </mxCell>
        <mxCell id="qpZsGNjPDPIV_CRu0O-Y-15" style="edgeStyle=none;rounded=0;orthogonalLoop=1;jettySize=auto;html=1;entryX=0;entryY=0.5;entryDx=0;entryDy=0;" parent="1" source="qpZsGNjPDPIV_CRu0O-Y-5" target="xQd1zLAD4g_vqcQ5N1h_-28" edge="1">
          <mxGeometry relative="1" as="geometry" />
        </mxCell>
        <mxCell id="qpZsGNjPDPIV_CRu0O-Y-16" style="edgeStyle=none;rounded=0;orthogonalLoop=1;jettySize=auto;html=1;entryX=0;entryY=0.5;entryDx=0;entryDy=0;" parent="1" source="qpZsGNjPDPIV_CRu0O-Y-5" target="xQd1zLAD4g_vqcQ5N1h_-29" edge="1">
          <mxGeometry relative="1" as="geometry" />
        </mxCell>
        <mxCell id="qpZsGNjPDPIV_CRu0O-Y-5" value="状态机转换" style="ellipse;whiteSpace=wrap;html=1;" parent="1" vertex="1">
          <mxGeometry x="190.5" y="330" width="90" height="40" as="geometry" />
        </mxCell>
        <mxCell id="qpZsGNjPDPIV_CRu0O-Y-7" value="GARP接口实例的创建/删除" style="ellipse;whiteSpace=wrap;html=1;" parent="1" vertex="1">
          <mxGeometry x="335.5" y="190" width="164.5" height="40" as="geometry" />
        </mxCell>
        <mxCell id="qpZsGNjPDPIV_CRu0O-Y-8" value="提供注册机制给上层应用" style="ellipse;whiteSpace=wrap;html=1;" parent="1" vertex="1">
          <mxGeometry x="335.5" y="240" width="164.5" height="40" as="geometry" />
        </mxCell>
        <mxCell id="qpZsGNjPDPIV_CRu0O-Y-9" style="edgeStyle=none;rounded=0;orthogonalLoop=1;jettySize=auto;html=1;entryX=0.066;entryY=0.7;entryDx=0;entryDy=0;entryPerimeter=0;" parent="1" source="xQd1zLAD4g_vqcQ5N1h_-27" target="xQd1zLAD4g_vqcQ5N1h_-26" edge="1">
          <mxGeometry relative="1" as="geometry" />
        </mxCell>
        <mxCell id="mdlVS8bJ89gBcZG47861-1" value="属性传播" style="ellipse;whiteSpace=wrap;html=1;" vertex="1" parent="1">
          <mxGeometry x="190.5" y="410" width="90" height="40" as="geometry" />
        </mxCell>
        <mxCell id="mdlVS8bJ89gBcZG47861-4" value="状态机信息查询" style="ellipse;whiteSpace=wrap;html=1;" vertex="1" parent="1">
          <mxGeometry x="335.5" y="290" width="164.5" height="40" as="geometry" />
        </mxCell>
      </root>
    </mxGraphModel>
  </diagram>
</mxfile>
